# xmcd
#
# Track frame offsets:
#	150
#	14717
#	29280
#	43835
#	58395
#
# Disc length: 977 seconds
#
# Revision: 1
# Processed by: cddbd v1.5.1PL0 Copyright (c) Steve Scherf et al.
# Submitted via: CDex 1.50Beta5
#
DISCID=4503cf05
DTITLE=What's Love? - あの鐘を鳴らすのはあなた
DYEAR=1900
DGENRE=Pop
TTITLE0=あの鐘を鳴らすのはあなた(by What's Love?と横山剣)
TTITLE1=あの鐘を鳴らすのはあなた(by What's Love?と小島麻由美)
TTITLE2=あの鐘を鳴らすのはあなた(by What's Love?)
TTITLE3=あの鐘を鳴らすのはあなた(by What's Love?とあなた)
TTITLE4=あの鐘を鳴らすのはあなた(byあなた)
EXTD=
EXTT0=
EXTT1=
EXTT2=
EXTT3=
EXTT4=
PLAYORDER=
